<svg xmlns="http://www.w3.org/2000/svg" xmlns:xlink="http://www.w3.org/1999/xlink" xmlns:inkscape="http://www.inkscape.org/namespaces/inkscape" version="1.1" width="491.441" height="148.056" viewBox="0 0 491.441 148.056">
<defs>
<clipPath id="clip_0">
<path transform="matrix(1,0,0,-1,0,148.056)" d="M0 148.056H491.441V0H0Z"/>
</clipPath>
</defs>
<path transform="matrix(1,0,0,-1,0,148.056)" d="M430.789 25.365H71.54199V41.58H430.789Z" fill="#ee7203"/>
<g clip-path="url(#clip_0)">
<path transform="matrix(1,0,0,-1,101.8358,31.762703)" d="M0 0V-74.61H-28.15V0L-101.836-.164-78.576 23.781V24.873H53.294C55.939 24.873 57.261 23.506 57.261 20.775V-5.053L31.157-14.757H30.065V-1.501C30.065-.5 29.564 0 28.559 0Z" fill="#ffffff"/>
<path transform="matrix(1,0,0,-1,0,148.056)" d="M166.179 116.434H190.954V41.276H166.179ZM166.179 148.056H190.954V128.206H166.179Z" fill="#ffffff"/>
<path transform="matrix(1,0,0,-1,268.4378,97.8822)" d="M0 0H.956V44.216C.956 45.771 .179 46.548-1.37 46.548H-30.941C-34.771 46.548-37.512 45.699-39.154 44.011-40.795 42.324-41.618 39.292-41.618 34.91V27.93C-41.618 23.818-40.821 21.016-39.225 19.508-37.625 18.004-34.864 17.248-30.941 17.248H-6.709ZM-62.972-29.229H-8.626C-5.067-29.229-2.582-28.426-1.166-26.831 .251-25.236 .956-12.226 .956-8.759V-2.736H-35.595C-46.819-2.736-54.76-.481-59.413 4.04-64.072 8.555-66.398 15.422-66.398 24.642V36.413C-66.398 40.979-65.851 45.085-64.752 48.736-63.657 52.387-61.878 55.512-59.413 58.114-56.954 60.712-53.783 62.722-49.902 64.138-46.021 65.549-41.255 66.26-35.595 66.26H19.027C23.588 66.26 25.869 63.974 25.869 59.413V-10.401C25.869-14.783 25.347-29.25 24.299-32.855 23.246-36.46 21.538-39.538 19.165-42.095 16.787-44.651 13.643-46.635 9.716-48.052 5.794-49.463 .956-50.174-4.791-50.174H-62.972Z" fill="#ffffff"/>
<path transform="matrix(1,0,0,-1,330.7197,60.2369)" d="M0 0H37.783C40.611 0 42.027 1.462 42.027 4.382V7.123C42.027 8.672 41.685 9.767 41 10.406 40.314 11.045 39.241 11.362 37.783 11.362H10.406C6.571 11.362 3.876 10.564 2.327 8.969 .772 7.368 0 4.52 0 .414ZM.956-3.692H0V-15.33C0-19.62 .731-22.566 2.189-24.161 3.651-25.756 6.387-26.554 10.406-26.554H63.928V-46.543H5.747C.184-46.543-4.541-45.837-8.417-44.421-12.298-43.009-15.468-41-17.933-38.397-20.398-35.794-22.177-32.67-23.271-29.019-24.366-25.373-24.913-21.262-24.913-16.701V-1.232C-24.913 3.334-24.366 7.44-23.271 11.091-22.177 14.742-20.398 17.866-17.933 20.469-15.468 23.067-12.298 25.076-8.417 26.493-4.541 27.904 .184 28.615 5.747 28.615H49.145C54.898 28.615 59.004 27.127 61.469 24.166 63.928 21.195 65.161 16.568 65.161 10.268V3.012C65.161-2.552 63.928-6.98 61.469-10.263 59.004-13.551 54.898-15.192 49.145-15.192H5.2Z" fill="#ffffff"/>
<path transform="matrix(1,0,0,-1,469.5345,63.110704)" d="M0 0H-1.094V10.268C-1.094 11.27-1.549 11.776-2.465 11.776H-32.716C-34.91 11.776-36.459 11.27-37.369 10.268-38.284 9.26-38.74 7.532-38.74 5.067V-43.669H-63.519V10.406C-63.519 16.793-61.852 21.906-58.523 25.736-55.189 29.571-49.877 31.489-42.575 31.489H18.347C20.72 31.489 21.906 30.256 21.906 27.792V8.35Z" fill="#ffffff"/>
</g>
</svg>
